<svg width="630" height="1295" viewBox="0 0 630 1295" fill="none" xmlns="http://www.w3.org/2000/svg">
<g clip-path="url(#clip0_0_35)">
<path d="M0 1574L0 0L728 0L728 1574H0Z" fill="url(#paint0_linear_0_35)"/>
<path opacity="0.12" d="M275.23 0.000610352C275.23 0.000610352 232.16 119.457 299.573 179.185C366.986 238.913 443.774 298.641 432.542 397.026C421.31 495.411 361.37 593.776 361.37 593.776C361.37 593.776 295.814 706.202 366.986 790.526C438.158 874.85 578.622 1008.37 563.631 1152.4C548.641 1296.45 455.006 1424.68 455.006 1424.68C455.006 1424.68 393.208 1514.27 432.542 1574H211.553C211.553 1574 243.392 1473.87 147.877 1382.52C52.3623 1291.16 89.8164 1103.21 194.706 994.286C299.595 885.365 -52.505 758.878 24.2827 581.457C101.07 404.036 202.201 335.515 99.191 212.554C-3.81897 89.5927 123.534 0.000610352 123.534 0.000610352H275.23Z" fill="#572D9D" fill-opacity="0.6"/>
<path d="M724.558 109.479C724.558 109.479 658.293 117.646 614.545 166.693C570.796 215.74 619.549 324.337 640.803 361.701C662.057 399.065 669.563 473.793 624.552 554.372C579.542 634.931 485.779 668.801 485.779 668.801C485.779 668.801 338.238 716.669 339.5 838.107C340.762 959.545 457.019 1045.96 457.019 1045.96C457.019 1045.96 545.778 1099.67 514.539 1236.29C483.277 1372.91 639.563 1403.26 639.563 1403.26C639.563 1403.26 725.82 1411.43 725.82 1466.3L724.58 109.479H724.558Z" fill="#2E116B"/>
<path opacity="0.41" d="M726.893 148.685C726.893 148.685 623.544 162.043 575.19 239.045C526.814 316.048 535.604 444.392 535.604 444.392C535.604 444.392 537.796 569.655 492.719 657.947C447.642 746.24 412.461 874.584 448.749 992.651C485.036 1110.72 536.689 1174.38 563.079 1195.95C589.47 1217.52 656.532 1291.44 675.218 1339.7C693.904 1387.96 715.912 1418.75 728 1429.03L726.893 148.685Z" fill="url(#paint1_linear_0_35)"/>
<path d="M726.883 297.355C726.883 297.355 653.223 354.859 626.832 444.185C600.442 533.511 591.652 624.884 579.564 663.902C567.475 702.92 553.173 786.085 566.368 883.62C579.564 981.154 602.656 1043.79 634.537 1101.29C666.419 1158.79 679.614 1211.15 693.894 1238.88C708.197 1266.6 726.883 1284.06 726.883 1284.06L726.883 297.376V297.355Z" fill="#582999"/>
<path d="M669.717 1077.96C669.717 1077.96 634.537 979.396 627.939 893.15C621.342 806.905 619.15 741.193 646.626 681.642C674.101 622.091 705.983 582.06 707.09 548.17C708.197 514.28 720.285 485.538 726.883 476.295V665.203C726.883 665.203 700.492 646.718 667.526 709.35C634.537 771.981 652.138 965.004 675.23 1021.47C698.322 1077.94 695.023 1098.48 687.319 1101.56C679.614 1104.64 669.74 1077.94 669.74 1077.94L669.717 1077.96Z" fill="url(#paint2_linear_0_35)"/>
<path d="M652.925 85.9489C652.925 85.9489 655.427 31.0713 529.141 45.0905C402.855 59.1098 321.601 131.501 321.601 131.501C321.601 131.501 295.343 150.193 309.092 171.202C322.841 192.21 395.349 199.219 384.102 254.097C372.855 308.975 414.102 317.142 414.102 317.142C414.102 317.142 445.363 331.161 471.621 280.936C497.879 230.732 527.879 159.498 599.148 129.144C599.148 129.144 655.405 109.294 652.903 85.9489H652.925Z" fill="#280B65" fill-opacity="0.53"/>
<path opacity="0.6" d="M485.551 0.000732422C485.551 0.000732422 542.016 64.2244 451.663 127.27C361.31 190.315 312.378 217.175 313.622 300.091C314.867 382.986 314.867 418.034 292.289 446.052C269.712 474.07 247.113 525.453 304.845 565.153C362.576 604.854 419.041 648.049 416.53 706.441C414.019 764.834 347.51 810.366 347.51 810.366C347.51 810.366 274.734 847.73 282.267 925.973C289.801 1004.22 249.646 1045.07 215.758 1088.27C181.87 1131.46 163.049 1164.18 164.315 1228.38C165.56 1292.6 273.49 1423.39 302.356 1480.6C331.222 1537.81 328.688 1574 328.688 1574H113.472C113.472 1574 169.937 1383.09 105.939 1242.98C41.941 1102.87 38.1855 927.71 109.695 801.599C181.204 675.487 -44.6566 465.323 85.2286 272.652C85.2286 272.652 120.983 218.353 175.582 181.568C230.158 144.783 190.648 39.7012 277.223 1.15857L485.528 0.000732422H485.551Z" fill="url(#paint3_linear_0_35)"/>
<path d="M641.86 1201.99C641.86 1201.99 633.159 1212.7 619.255 1195.91C605.351 1179.12 601.853 1146.64 601.853 1146.64C601.853 1146.64 601.41 1137.7 609.248 1139.5C617.085 1141.3 653.594 1190.91 641.86 1201.97V1201.99Z" fill="#451F85"/>
<path opacity="0.42" d="M514.579 972.559C514.579 972.559 525.093 969.63 530.409 980.673C535.724 991.716 535.126 1003.38 519.911 1004.75C504.696 1006.13 500.808 976.348 514.579 972.559Z" fill="#582999"/>
<path d="M335.265 434.554C335.265 434.554 335.083 430.494 330.695 430.794C326.307 431.094 326.489 435.003 326.489 435.003C326.489 435.003 326.672 438.913 331.424 439.062C331.424 439.062 335.812 439.062 335.265 434.554Z" fill="#C598FA"/>
<path d="M114.656 1055.87C114.656 1055.87 114.474 1051.81 110.086 1052.11C105.698 1052.41 105.88 1056.32 105.88 1056.32C105.88 1056.32 106.062 1060.23 110.815 1060.38C110.815 1060.38 115.203 1060.38 114.656 1055.87Z" fill="#C598FA"/>
<path d="M224.984 1165.82C224.984 1165.82 224.893 1163.79 222.699 1163.94C220.505 1164.09 220.596 1166.05 220.596 1166.05C220.596 1166.05 220.687 1168 223.064 1168.08C223.064 1168.08 225.258 1168.08 224.984 1165.82Z" fill="#C598FA"/>
<path d="M432.359 1070.55C432.359 1070.55 432.268 1068.52 430.074 1068.67C427.88 1068.82 427.971 1070.78 427.971 1070.78C427.971 1070.78 428.062 1072.73 430.439 1072.81C430.439 1072.81 432.633 1072.81 432.359 1070.55Z" fill="#C598FA"/>
<path d="M582.367 527.935C582.367 527.935 582.276 525.905 580.082 526.055C577.888 526.205 577.979 528.16 577.979 528.16C577.979 528.16 578.07 530.114 580.446 530.189C580.446 530.189 582.64 530.189 582.367 527.935Z" fill="#C598FA"/>
<path d="M436.765 109.582C436.765 109.582 436.674 107.553 434.48 107.703C432.286 107.853 432.377 109.807 432.377 109.807C432.377 109.807 432.469 111.762 434.845 111.837C434.845 111.837 437.039 111.837 436.765 109.582Z" fill="#532F9D"/>
<path d="M296.12 516.151C267.882 607.278 207.877 610.73 181.405 601.065C132.873 588.638 93.1623 462.305 170.374 385.676C247.587 309.047 331.417 402.244 296.12 516.151Z" fill="#270D66" fill-opacity="0.66"/>
<rect width="577" height="674" transform="matrix(-1 0 0 1 653 906)" fill="url(#paint4_linear_0_35)"/>
</g>
<defs>
<linearGradient id="paint0_linear_0_35" x1="0" y1="787" x2="728" y2="787" gradientUnits="userSpaceOnUse">
<stop stop-color="#260C65"/>
<stop offset="1" stop-color="#37157D"/>
</linearGradient>
<linearGradient id="paint1_linear_0_35" x1="728" y1="788.855" x2="255.904" y2="786.75" gradientUnits="userSpaceOnUse">
<stop stop-color="#572D9D"/>
<stop offset="1" stop-color="#572D9D" stop-opacity="0"/>
</linearGradient>
<linearGradient id="paint2_linear_0_35" x1="727.99" y1="318.947" x2="727.99" y2="1420.75" gradientUnits="userSpaceOnUse">
<stop stop-color="#3D1A7E"/>
<stop offset="1" stop-color="#3D1A7E" stop-opacity="0"/>
</linearGradient>
<linearGradient id="paint3_linear_0_35" x1="216.189" y1="1574" x2="216.189" y2="0.000616215" gradientUnits="userSpaceOnUse">
<stop stop-color="#3B1689"/>
<stop offset="1" stop-color="#280B65"/>
</linearGradient>
<linearGradient id="paint4_linear_0_35" x1="266.226" y1="245.35" x2="268.145" y2="674.01" gradientUnits="userSpaceOnUse">
<stop stop-color="#260C65" stop-opacity="0"/>
<stop offset="1" stop-color="#260C65"/>
</linearGradient>
<clipPath id="clip0_0_35">
<rect width="650" height="1295" fill="white"/>
</clipPath>
</defs>
</svg>
