<svg width="488" height="1565" viewBox="0 0 488 1565" fill="none" xmlns="http://www.w3.org/2000/svg">
<path d="M416.25 1553L416.25 0.000976562L-186.004 0.000976562L-186.004 1553H416.25Z" fill="url(#paint0_linear_0_156)"/>
<path opacity="0.12" d="M188.56 0.000732422C188.56 0.000732422 224.191 117.863 168.422 176.794C112.653 235.725 49.1285 294.656 58.4203 391.729C67.7121 488.802 117.299 585.854 117.299 585.854C117.299 585.854 171.531 696.78 112.653 779.979C53.7744 863.178 -62.4276 994.914 -50.0264 1137.02C-37.6252 1279.15 39.8368 1405.67 39.8368 1405.67C39.8368 1405.67 90.9598 1494.07 58.4203 1553H241.238C241.238 1553 214.899 1454.21 293.916 1364.07C372.932 1273.94 341.947 1088.49 255.175 981.02C168.403 873.553 459.686 748.754 396.162 573.7C332.637 398.645 248.975 331.038 334.192 209.718C419.409 88.3975 314.054 0.000732422 314.054 0.000732422H188.56Z" fill="#572D9D" fill-opacity="0.6"/>
<path d="M-183.307 108.103C-183.307 108.103 -128.449 116.801 -92.2309 169.031C-56.0132 221.261 -96.3732 336.908 -113.969 376.697C-131.565 416.486 -137.778 496.065 -100.516 581.875C-63.2531 667.663 14.3694 703.73 14.3694 703.73C14.3694 703.73 136.513 754.706 135.468 884.026C134.423 1013.35 3.14339 1090.8 3.14339 1090.8C3.14339 1090.8 -58.8384 1136.6 -9.43968 1308.06C16.4406 1453.54 -112.943 1485.86 -112.943 1485.86C-112.943 1485.86 -184.352 1494.56 -184.352 1553L-183.325 108.103H-183.307Z" fill="#2E116B"/>
<path opacity="0.41" d="M-185.226 146.62C-185.226 146.62 -122.429 161.292 -93.048 245.875C-63.6539 330.458 -68.9946 471.437 -68.9946 471.437C-68.9946 471.437 -70.3264 609.031 -42.9367 706.015C-15.5471 802.999 5.82927 943.978 -16.2197 1073.67C-38.2686 1203.36 -69.6538 1273.29 -85.6894 1296.98C-101.725 1320.67 -142.473 1401.87 -153.827 1454.88C-165.181 1507.89 -178.553 1541.71 -185.898 1553L-185.226 146.62Z" fill="url(#paint1_linear_0_156)"/>
<path d="M-123.897 84.8025C-123.897 84.8025 -125.966 30.6572 -21.4932 44.4893C82.9799 58.3215 150.199 129.747 150.199 129.747C150.199 129.747 171.921 148.19 160.547 168.918C149.173 189.646 89.189 196.562 98.4934 250.707C107.798 304.853 73.6756 312.911 73.6756 312.911C73.6756 312.911 47.8137 326.743 26.0912 277.188C4.3687 227.654 -20.4492 157.371 -79.4076 127.421C-79.4076 127.421 -125.948 107.836 -123.878 84.8025H-123.897Z" fill="#280B65" fill-opacity="0.53"/>
<path opacity="0.6" d="M14.5723 0.000732422C14.5723 0.000732422 -32.1397 63.3677 42.6068 125.572C117.353 187.776 157.833 214.277 156.804 296.087C155.774 377.876 155.774 412.457 174.452 440.101C193.129 467.745 211.825 518.443 164.065 557.613C116.305 596.784 69.5935 639.403 71.6708 697.016C73.7481 754.63 128.769 799.554 128.769 799.554C128.769 799.554 188.975 836.419 182.743 913.619C176.511 990.818 209.729 1031.13 237.764 1073.75C265.798 1116.37 281.369 1148.64 280.321 1211.99C279.292 1275.36 190.004 1404.4 166.124 1460.85C142.244 1517.3 144.34 1553 144.34 1553H322.382C322.382 1553 275.67 1364.63 328.614 1226.39C357.68 1136.6 281.098 995.926 221.94 871.498C162.783 747.069 453.198 459.115 345.747 269.014C345.747 269.014 316.169 215.44 271.001 179.146C225.852 142.852 258.537 39.1716 186.916 1.14331L14.5906 0.000732422H14.5723Z" fill="url(#paint2_linear_0_156)"/>
<path d="M69.5468 1299.25C69.5468 1299.25 69.6976 1295.25 73.3277 1295.54C76.9577 1295.84 76.807 1299.7 76.807 1299.7C76.807 1299.7 76.6562 1303.55 72.7246 1303.7C72.7246 1303.7 69.0945 1303.7 69.5468 1299.25Z" fill="#C598FA"/>
<path d="M321.391 1041.78C321.391 1041.78 321.541 1037.78 325.171 1038.07C328.801 1038.37 328.651 1042.23 328.651 1042.23C328.651 1042.23 328.5 1046.08 324.568 1046.23C324.568 1046.23 320.938 1046.23 321.391 1041.78Z" fill="#C598FA"/>
<path d="M230.121 1150.26C230.121 1150.26 230.196 1148.26 232.011 1148.41C233.827 1148.56 233.751 1150.49 233.751 1150.49C233.751 1150.49 233.676 1152.42 231.71 1152.49C231.71 1152.49 229.895 1152.49 230.121 1150.26Z" fill="#C598FA"/>
<path d="M58.5742 1056.27C58.5742 1056.27 58.6496 1054.27 60.4646 1054.41C62.2797 1054.56 62.2043 1056.49 62.2043 1056.49C62.2043 1056.49 62.1289 1058.42 60.1631 1058.49C60.1631 1058.49 58.348 1058.49 58.5742 1056.27Z" fill="#C598FA"/>
<path d="M54.9258 108.12C54.9258 108.12 55.0011 106.118 56.8162 106.266C58.6312 106.414 58.5558 108.342 58.5558 108.342C58.5558 108.342 58.4804 110.271 56.5146 110.345C56.5146 110.345 54.6996 110.345 54.9258 108.12Z" fill="#C598FA"/>
<path d="M171.281 509.265C194.641 599.176 244.281 602.581 266.181 593.045C306.33 580.784 339.182 456.137 275.306 380.53C211.431 304.924 142.081 396.877 171.281 509.265Z" fill="#270D66" fill-opacity="0.66"/>
<rect width="711" height="674" transform="matrix(-1 0 0 1 488 891)" fill="url(#paint3_linear_0_156)"/>
<defs>
<linearGradient id="paint0_linear_0_156" x1="416.25" y1="776.501" x2="-186.004" y2="776.501" gradientUnits="userSpaceOnUse">
<stop stop-color="#260C65"/>
<stop offset="1" stop-color="#37157D"/>
</linearGradient>
<linearGradient id="paint1_linear_0_156" x1="-185.898" y1="849.81" x2="100.961" y2="849.102" gradientUnits="userSpaceOnUse">
<stop stop-color="#572D9D"/>
<stop offset="1" stop-color="#572D9D" stop-opacity="0"/>
</linearGradient>
<linearGradient id="paint2_linear_0_156" x1="237.408" y1="1553" x2="237.408" y2="0.000738207" gradientUnits="userSpaceOnUse">
<stop stop-color="#3B1689"/>
<stop offset="1" stop-color="#280B65"/>
</linearGradient>
<linearGradient id="paint3_linear_0_156" x1="328.053" y1="245.35" x2="329.61" y2="674.013" gradientUnits="userSpaceOnUse">
<stop stop-color="#260C65" stop-opacity="0"/>
<stop offset="1" stop-color="#260C65"/>
</linearGradient>
</defs>
</svg>
