<svg width="32" height="18" viewBox="0 0 32 18" fill="none" xmlns="http://www.w3.org/2000/svg">
<path d="M10.2492 7.25518V7.7277L10.5783 17.6713C10.8709 17.8904 11.1416 18 11.3903 18C11.639 18 11.778 17.774 11.8073 17.322C11.8073 17.1851 11.8 16.8632 11.7853 16.3564C11.7853 15.836 11.778 15.2265 11.7634 14.528C11.7634 13.8294 11.7561 13.083 11.7414 12.2886C11.7268 11.4942 11.7122 10.7478 11.6976 10.0492C11.6829 9.35073 11.6683 8.74808 11.6537 8.24132C11.639 7.72085 11.6317 7.39214 11.6317 7.25518L11.6537 6.81689L11.6317 6.44708V5.8376C11.5878 5.4678 11.5586 5.06375 11.5439 4.62547C11.5293 4.17349 11.522 3.71466 11.522 3.24898C11.5366 2.76961 11.5512 2.29708 11.5659 1.8314C11.5805 1.35203 11.6025 0.900049 11.6317 0.475461C11.5878 0.338497 11.5 0.228925 11.3684 0.146747C11.2367 0.0508723 11.0904 0.00293494 10.9295 0.00293494C10.7832 -0.0107615 10.6369 0.0234795 10.4906 0.105658C10.3443 0.187836 10.2492 0.317952 10.2053 0.496005L10.2492 6.31013V6.96755V7.25518Z" fill="white"/>
<path d="M1.60276 16.3359C1.20774 16.3222 0.87125 16.2126 0.593277 16.0072C0.183633 16.1578 -0.0138734 16.3701 0.000756731 16.6441C0.0153869 16.9043 0.190948 17.1714 0.527442 17.4453C0.834674 17.5275 1.237 17.5343 1.73443 17.4658C2.24648 17.3974 2.7878 17.2672 3.35837 17.0755C3.94358 16.8837 4.52878 16.6441 5.11399 16.3564C5.69919 16.0551 6.22588 15.7264 6.69404 15.3703C7.17684 15.0005 7.57185 14.6101 7.87908 14.1992C8.18632 13.7747 8.34725 13.3364 8.36188 12.8844C8.33262 12.1722 8.179 11.686 7.90103 11.4257C7.62306 11.1518 7.27193 11.0011 6.84766 10.9737C6.42339 10.9327 5.94791 10.9669 5.42122 11.0765C4.89454 11.1723 4.37517 11.2408 3.86311 11.2819C3.36569 11.323 2.89021 11.2819 2.43667 11.1587C1.99777 11.0217 1.63933 10.7067 1.36136 10.2136C1.22969 9.78901 1.25895 9.31648 1.44914 8.79602C1.63933 8.27556 1.9612 7.80988 2.41473 7.39899C2.86826 6.9744 3.43884 6.64569 4.12646 6.41285C4.81407 6.18001 5.58947 6.14577 6.45265 6.31013C6.70136 6.33752 6.89887 6.28958 7.04517 6.16631C7.19147 6.04305 7.27193 5.87869 7.28656 5.67324C7.30119 5.50889 7.27925 5.38562 7.22073 5.30344C7.17684 5.22126 7.10369 5.15963 7.00128 5.11854C6.89887 5.07745 6.78182 5.05691 6.65015 5.05691C6.53311 5.04321 6.40144 5.02951 6.25514 5.01582C5.52363 4.97473 4.79944 5.0706 4.08256 5.30344C3.38032 5.53628 2.73659 5.87184 2.15139 6.31013C1.58081 6.74841 1.10533 7.28257 0.724948 7.9126C0.359195 8.52894 0.154373 9.19322 0.110483 9.90543C0.0812225 10.645 0.249469 11.1929 0.615222 11.549C0.980976 11.9051 1.45646 12.1311 2.04166 12.227C2.6415 12.3228 3.31448 12.3228 4.06062 12.227C4.80676 12.1311 5.55289 12.001 6.29903 11.8366C6.70867 11.9736 6.97202 12.1585 7.08906 12.3913C7.2061 12.6242 7.21341 12.8844 7.111 13.172C7.00859 13.4459 6.81109 13.7404 6.51848 14.0554C6.24051 14.3568 5.90402 14.6444 5.509 14.9183C5.12862 15.1922 4.70435 15.4456 4.23618 15.6785C3.78265 15.8976 3.32911 16.0688 2.87558 16.1921C2.43667 16.3016 2.0124 16.3496 1.60276 16.3359Z" fill="white"/>
<path fill-rule="evenodd" clip-rule="evenodd" d="M21.529 17.2809C21.3242 16.9933 21.1925 16.6167 21.134 16.151C21.0901 15.6853 21.0608 15.1991 21.0462 14.6923V13.172C21.0608 12.6653 21.0243 12.2338 20.9365 11.8777C20.2489 13.2884 19.5978 14.391 18.9834 15.1854C18.3835 15.9661 17.8276 16.5276 17.3155 16.87C16.8181 17.1988 16.3646 17.3494 15.9549 17.322C15.5453 17.2809 15.1942 17.144 14.9015 16.9111C14.6236 16.6646 14.4041 16.3701 14.2432 16.0277C14.0823 15.6716 13.9945 15.3361 13.9799 15.021C13.8774 14.5006 13.8701 13.8774 13.9579 13.1515C14.0603 12.4119 14.2286 11.6517 14.4626 10.871C14.7114 10.0903 15.0186 9.33018 15.3843 8.59058C15.7647 7.83727 16.189 7.1867 16.6572 6.63884C17.14 6.09098 17.652 5.68694 18.1933 5.42671C18.7346 5.15278 19.2979 5.10484 19.8831 5.2829C20.1757 5.2555 20.4171 5.2692 20.6073 5.32399C20.8121 5.36507 20.9804 5.46095 21.112 5.61161C21.2437 5.76227 21.3388 5.97456 21.3973 6.24849C21.4559 6.50872 21.4997 6.84429 21.529 7.25518C21.4997 8.58373 21.5363 9.71368 21.6387 10.645C21.7558 11.5764 21.8874 12.3982 22.0337 13.1104C22.18 13.8226 22.319 14.4663 22.4507 15.0416C22.597 15.6168 22.6848 16.2126 22.714 16.829C22.714 17.0481 22.6555 17.2193 22.5385 17.3426C22.4214 17.4521 22.2898 17.5206 22.1435 17.548C21.9972 17.5891 21.8582 17.5823 21.7265 17.5275C21.6095 17.4727 21.5436 17.3905 21.529 17.2809ZM20.2562 6.90592C19.9051 6.46763 19.5247 6.28273 19.115 6.35121C18.7054 6.4197 18.2957 6.65938 17.8861 7.07028C17.4911 7.46747 17.1107 7.99478 16.7449 8.65221C16.3792 9.29594 16.0646 9.98761 15.8013 10.7272C15.538 11.4668 15.3405 12.2064 15.2088 12.946C15.0917 13.6719 15.0698 14.3157 15.1429 14.8772C15.3478 15.4936 15.5965 15.8634 15.8891 15.9866C16.1817 16.1099 16.4962 16.0688 16.8327 15.8634C17.1692 15.6442 17.513 15.3018 17.8642 14.8361C18.2153 14.3705 18.5518 13.8705 18.8736 13.3364C19.1955 12.7885 19.4808 12.2475 19.7295 11.7134C19.9928 11.1655 20.205 10.7067 20.3659 10.3369L20.2562 6.90592Z" fill="white"/>
<path d="M23.7235 12.2886C23.7528 13.6035 23.7894 15.2059 23.8332 17.096C23.8918 17.2467 23.9942 17.3631 24.1405 17.4453C24.3014 17.5138 24.455 17.5412 24.6013 17.5275C24.7623 17.5275 24.9012 17.4932 25.0183 17.4248C25.15 17.3426 25.2231 17.2262 25.2377 17.0755C25.2524 16.6235 25.2451 16.0962 25.2158 15.4936C25.2012 14.8909 25.2012 14.254 25.2158 13.5829C25.2451 12.9118 25.3109 12.2407 25.4133 11.5695C25.5303 10.8847 25.7425 10.2341 26.0497 9.61781C26.2545 9.19322 26.5325 8.78917 26.8836 8.40567C27.2494 8.02218 27.6663 7.69346 28.1345 7.41953C28.6173 7.13191 29.144 6.91962 29.7146 6.78265C30.2998 6.63199 30.9215 6.57721 31.5799 6.61829C31.7116 6.56351 31.814 6.48133 31.8871 6.37176C31.9749 6.24849 32.0115 6.12522 31.9969 6.00196C31.9969 5.86499 31.9457 5.74173 31.8432 5.63215C31.7555 5.52258 31.6165 5.44725 31.4263 5.40616C30.8557 5.31029 30.2339 5.31714 29.5609 5.42671C28.9026 5.53628 28.2662 5.77597 27.6517 6.14577C27.0372 6.50188 26.4813 6.99495 25.9839 7.62498C25.5011 8.25501 25.15 9.04256 24.9305 9.98761L24.8647 5.26235C24.8062 5.13908 24.7111 5.05006 24.5794 4.99527C24.4477 4.94049 24.3087 4.92679 24.1624 4.95418C24.0308 4.96788 23.9064 5.01582 23.7894 5.09799C23.6723 5.18017 23.6065 5.2829 23.5919 5.40616V5.91978C23.6065 6.15262 23.6138 6.51557 23.6138 7.00864C23.6284 7.48802 23.6431 8.15914 23.6577 9.02201C23.6723 9.88489 23.6943 10.9737 23.7235 12.2886Z" fill="white"/>
</svg>
